<svg xmlns="http://www.w3.org/2000/svg" viewBox="0 0 760 280" font-family="system-ui, -apple-system, sans-serif">
  <defs>
    <marker id="a" viewBox="0 0 10 10" refX="10" refY="5" markerWidth="5" markerHeight="5" orient="auto">
      <path d="M0,0 L10,5 L0,10 Z" fill="#8b8e97"/>
    </marker>
    <marker id="b" viewBox="0 0 10 10" refX="10" refY="5" markerWidth="5" markerHeight="5" orient="auto">
      <path d="M0,0 L10,5 L0,10 Z" fill="#ac3030"/>
    </marker>
  </defs>
  <rect width="760" height="280" fill="#ffffff" rx="12"/>
  <text x="24" y="22" fill="#14151a" font-size="13" font-weight="700">Document Ingestion Workflow</text>

  <!-- Phase A label -->
  <text x="24" y="48" fill="#2f6fe0" font-size="8" font-weight="700" letter-spacing="1">PHASE A: EXTERNAL GATEWAY</text>

  <!-- 1. Upload -->
  <rect x="16" y="58" width="110" height="56" rx="6" fill="#f6f7f9" stroke="#e2e4e9" stroke-width="1.3"/>
  <rect x="16" y="58" width="4" height="56" rx="2" fill="#2f6fe0"/>
  <text x="71" y="76" fill="#14151a" font-size="9" font-weight="600" text-anchor="middle">1. Validate</text>
  <text x="71" y="94" fill="#53565f" font-size="7" text-anchor="middle">MIME + size check</text>
  <text x="71" y="106" fill="#53565f" font-size="7" text-anchor="middle">Site + asset binding</text>

  <line x1="126" y1="86" x2="144" y2="86" stroke="#8b8e97" stroke-width="1.3" marker-end="url(#a)"/>

  <!-- 2. Parse -->
  <rect x="148" y="58" width="110" height="56" rx="6" fill="#f6f7f9" stroke="#e2e4e9" stroke-width="1.3"/>
  <rect x="148" y="58" width="4" height="56" rx="2" fill="#2f6fe0"/>
  <text x="203" y="76" fill="#14151a" font-size="9" font-weight="600" text-anchor="middle">2. Parse / OCR</text>
  <text x="203" y="94" fill="#53565f" font-size="7" text-anchor="middle">Ingestion Gateway</text>
  <text x="203" y="106" fill="#53565f" font-size="7" text-anchor="middle">Mock or HTTP mode</text>

  <line x1="258" y1="86" x2="276" y2="86" stroke="#8b8e97" stroke-width="1.3" marker-end="url(#a)"/>

  <!-- Gateway modes -->
  <rect x="280" y="55" width="86" height="28" rx="4" fill="#ffffff" stroke="#cdd0d7" stroke-width="1" stroke-dasharray="4 3"/>
  <text x="323" y="70" fill="#53565f" font-size="7" font-weight="600" text-anchor="middle">Mock Gateway</text>
  <text x="323" y="80" fill="#8b8e97" font-size="6" text-anchor="middle">(development)</text>

  <rect x="280" y="90" width="86" height="28" rx="4" fill="#ffffff" stroke="#cdd0d7" stroke-width="1" stroke-dasharray="4 3"/>
  <text x="323" y="105" fill="#53565f" font-size="7" font-weight="600" text-anchor="middle">HTTP Gateway</text>
  <text x="323" y="115" fill="#8b8e97" font-size="6" text-anchor="middle">(POST /v1/ingest)</text>

  <line x1="366" y1="86" x2="384" y2="86" stroke="#8b8e97" stroke-width="1.3" marker-end="url(#a)"/>

  <!-- Phase B label -->
  <text x="395" y="48" fill="#14151a" font-size="8" font-weight="700" letter-spacing="1">PHASE B: PRODUCTION PIPELINE</text>

  <!-- 3. Chunk -->
  <rect x="390" y="58" width="110" height="56" rx="6" fill="#f6f7f9" stroke="#e2e4e9" stroke-width="1.3"/>
  <rect x="390" y="58" width="4" height="56" rx="2" fill="#2f6fe0"/>
  <text x="445" y="76" fill="#14151a" font-size="9" font-weight="600" text-anchor="middle">3. Chunk</text>
  <text x="445" y="94" fill="#53565f" font-size="7" text-anchor="middle">EvidenceRegion</text>
  <text x="445" y="106" fill="#53565f" font-size="7" text-anchor="middle">DocumentChunk</text>

  <line x1="500" y1="86" x2="518" y2="86" stroke="#8b8e97" stroke-width="1.3" marker-end="url(#a)"/>

  <!-- 4. Embed -->
  <rect x="522" y="58" width="110" height="56" rx="6" fill="#f6f7f9" stroke="#e2e4e9" stroke-width="1.3"/>
  <rect x="522" y="58" width="4" height="56" rx="2" fill="#2f6fe0"/>
  <text x="577" y="76" fill="#14151a" font-size="9" font-weight="600" text-anchor="middle">4. Embed</text>
  <text x="577" y="94" fill="#53565f" font-size="7" text-anchor="middle">LLM embed_text()</text>
  <text x="577" y="106" fill="#53565f" font-size="7" text-anchor="middle">1536-dim pgvector</text>

  <line x1="632" y1="86" x2="650" y2="86" stroke="#8b8e97" stroke-width="1.3" marker-end="url(#a)"/>

  <!-- 5. Graph -->
  <rect x="654" y="58" width="92" height="56" rx="6" fill="#f6f7f9" stroke="#e2e4e9" stroke-width="1.3"/>
  <rect x="654" y="58" width="4" height="56" rx="2" fill="#2f6fe0"/>
  <text x="700" y="76" fill="#14151a" font-size="9" font-weight="600" text-anchor="middle">5. Graph</text>
  <text x="700" y="94" fill="#53565f" font-size="7" text-anchor="middle">Neo4j Cypher</text>
  <text x="700" y="106" fill="#53565f" font-size="7" text-anchor="middle">HAS_EVIDENCE</text>

  <!-- Check for failure -->
  <path d="M258 114 Q258 136 323 136 Q388 136 388 114" stroke="#ac3030" stroke-width="1" stroke-dasharray="4 3" fill="none" marker-end="url(#b)"/>
  <text x="323" y="148" fill="#ac3030" font-size="7" font-style="italic" text-anchor="middle">Failed → retry</text>

  <!-- Document Status Lifecycle -->
  <rect x="160" y="168" width="440" height="40" rx="6" fill="#eef0f3" stroke="#cdd0d7" stroke-width="1"/>
  <text x="380" y="184" fill="#14151a" font-size="8.5" font-weight="600" text-anchor="middle">Document Status Lifecycle</text>
  <text x="380" y="198" fill="#53565f" font-size="7.5" text-anchor="middle">uploaded → queued → processing → ready / partially_ready / failed → archived</text>

  <!-- Provenance Envelope -->
  <rect x="240" y="220" width="280" height="40" rx="6" fill="#f6f7f9" stroke="#e2e4e9" stroke-width="1.3"/>
  <rect x="240" y="220" width="4" height="40" rx="2" fill="#14151a"/>
  <text x="380" y="238" fill="#14151a" font-size="9" font-weight="600" text-anchor="middle">Provenance Envelope</text>
  <text x="380" y="252" fill="#53565f" font-size="7" text-anchor="middle">doc revision · chunk · page locator · extraction version · review state</text>

  <line x1="380" y1="208" x2="380" y2="220" stroke="#8b8e97" stroke-width="1" marker-end="url(#a)"/>

  <!-- Counts indicator -->
  <rect x="16" y="170" width="120" height="90" rx="6" fill="#f6f7f9" stroke="#e2e4e9" stroke-width="1"/>
  <text x="76" y="190" fill="#14151a" font-size="8" font-weight="600" text-anchor="middle">Ingestion Tracking</text>
  <text x="76" y="208" fill="#53565f" font-size="7" text-anchor="middle">chunk_count</text>
  <text x="76" y="222" fill="#53565f" font-size="7" text-anchor="middle">entity_count</text>
  <text x="76" y="236" fill="#53565f" font-size="7" text-anchor="middle">relationship_count</text>
  <text x="76" y="250" fill="#53565f" font-size="7" text-anchor="middle">progress_percent</text>
</svg>
