<svg xmlns="http://www.w3.org/2000/svg" viewBox="0 0 760 420" font-family="system-ui, -apple-system, sans-serif">
  <defs>
    <marker id="a" viewBox="0 0 10 10" refX="10" refY="5" markerWidth="5" markerHeight="5" orient="auto">
      <path d="M0,0 L10,5 L0,10 Z" fill="#8b8e97"/>
    </marker>
    <marker id="b" viewBox="0 0 10 10" refX="10" refY="5" markerWidth="5" markerHeight="5" orient="auto">
      <path d="M0,0 L10,5 L0,10 Z" fill="#2f6fe0"/>
    </marker>
  </defs>
  <rect width="760" height="420" fill="#ffffff" rx="12"/>
  <text x="24" y="22" fill="#14151a" font-size="13" font-weight="700">Deployment Topology</text>

  <!-- CI/CD bar -->
  <rect x="16" y="40" width="728" height="30" rx="6" fill="#f6f7f9" stroke="#e2e4e9" stroke-width="1"/>
  <text x="380" y="59" fill="#14151a" font-size="9" font-weight="600" text-anchor="middle">GitHub Actions — CI/CD Pipeline</text>

  <line x1="120" y1="70" x2="120" y2="100" stroke="#8b8e97" stroke-width="1.2" marker-end="url(#a)"/>
  <line x1="380" y1="70" x2="380" y2="100" stroke="#8b8e97" stroke-width="1.2" marker-end="url(#a)"/>
  <line x1="640" y1="70" x2="640" y2="100" stroke="#8b8e97" stroke-width="1.2" marker-end="url(#a)"/>

  <!-- Vercel -->
  <rect x="16" y="104" width="218" height="130" rx="10" fill="#f6f7f9" stroke="#e2e4e9" stroke-width="1.5"/>
  <rect x="16" y="104" width="5" height="130" rx="2.5" fill="#2f6fe0"/>
  <text x="125" y="126" fill="#14151a" font-size="11" font-weight="700" text-anchor="middle">Vercel (CDN)</text>
  <line x1="65" y1="136" x2="185" y2="136" stroke="#e2e4e9" stroke-width="0.8"/>
  <text x="125" y="150" fill="#53565f" font-size="8" text-anchor="middle">Next.js 14 Frontend</text>
  <text x="125" y="164" fill="#53565f" font-size="8" text-anchor="middle">Static generation + SSR</text>
  <text x="125" y="178" fill="#53565f" font-size="8" text-anchor="middle">Auth proxy (cookies)</text>
  <text x="125" y="192" fill="#53565f" font-size="8" text-anchor="middle">Documentation pages</text>
  <text x="125" y="206" fill="#53565f" font-size="8" text-anchor="middle">Global CDN delivery</text>

  <line x1="234" y1="169" x2="260" y2="169" stroke="#8b8e97" stroke-width="1.3" marker-end="url(#a)"/>
  <text x="246" y="162" fill="#8b8e97" font-size="7" text-anchor="middle">HTTP</text>

  <!-- Render -->
  <rect x="264" y="104" width="480" height="180" rx="10" fill="#f6f7f9" stroke="#e2e4e9" stroke-width="1.5"/>
  <rect x="264" y="104" width="5" height="180" rx="2.5" fill="#14151a"/>
  <text x="504" y="126" fill="#14151a" font-size="11" font-weight="700" text-anchor="middle">Render Cloud (Docker - Free Tier)</text>

  <rect x="278" y="140" width="218" height="78" rx="6" fill="#ffffff" stroke="#e2e4e9" stroke-width="1"/>
  <rect x="278" y="140" width="4" height="78" rx="2" fill="#2f6fe0"/>
  <text x="387" y="158" fill="#14151a" font-size="8.5" font-weight="600" text-anchor="middle">FastAPI Application</text>
  <text x="387" y="174" fill="#53565f" font-size="7.5" text-anchor="middle">API · Auth · Tenancy</text>
  <text x="387" y="188" fill="#53565f" font-size="7.5" text-anchor="middle">Rate limits · Audit</text>
  <text x="387" y="202" fill="#53565f" font-size="7.5" text-anchor="middle">Query orchestration</text>

  <rect x="510" y="140" width="218" height="78" rx="6" fill="#ffffff" stroke="#e2e4e9" stroke-width="1"/>
  <rect x="510" y="140" width="4" height="78" rx="2" fill="#2f6fe0"/>
  <text x="619" y="158" fill="#14151a" font-size="8.5" font-weight="600" text-anchor="middle">Background Worker</text>
  <text x="619" y="174" fill="#53565f" font-size="7.5" text-anchor="middle">Query dispatch mode</text>
  <text x="619" y="188" fill="#53565f" font-size="7.5" text-anchor="middle">Ingestion processing</text>
  <text x="619" y="202" fill="#53565f" font-size="7.5" text-anchor="middle">Approval queue</text>

  <rect x="278" y="232" width="450" height="40" rx="6" fill="#eef0f3" stroke="#cdd0d7" stroke-width="1"/>
  <text x="503" y="248" fill="#14151a" font-size="8" font-weight="600" text-anchor="middle">PostgreSQL 16 + pgvector  ·  Redis 7</text>
  <text x="503" y="262" fill="#53565f" font-size="7.5" text-anchor="middle">Neo4j disabled for free tier · S3-compatible storage (MinIO)</text>
  <line x1="387" y1="218" x2="387" y2="232" stroke="#cdd0d7" stroke-width="0.8"/>
  <line x1="619" y1="218" x2="619" y2="232" stroke="#cdd0d7" stroke-width="0.8"/>

  <!-- Docker Compose (Self-hosted) -->
  <rect x="16" y="266" width="348" height="136" rx="10" fill="#f6f7f9" stroke="#e2e4e9" stroke-width="1.5"/>
  <rect x="16" y="266" width="5" height="136" rx="2.5" fill="#2f6fe0"/>
  <text x="190" y="288" fill="#14151a" font-size="11" font-weight="700" text-anchor="middle">Docker Compose (Self-hosted)</text>
  <line x1="50" y1="298" x2="330" y2="298" stroke="#e2e4e9" stroke-width="0.8"/>

  <rect x="28" y="306" width="148" height="24" rx="4" fill="#ffffff" stroke="#e2e4e9" stroke-width="0.8"/>
  <text x="102" y="322" fill="#14151a" font-size="7.5" font-weight="600" text-anchor="middle">pgvector:16 (PostgreSQL)</text>

  <rect x="188" y="306" width="148" height="24" rx="4" fill="#ffffff" stroke="#e2e4e9" stroke-width="0.8"/>
  <text x="262" y="322" fill="#14151a" font-size="7.5" font-weight="600" text-anchor="middle">Neo4j 5 (Graph DB)</text>

  <rect x="28" y="338" width="148" height="24" rx="4" fill="#ffffff" stroke="#e2e4e9" stroke-width="0.8"/>
  <text x="102" y="354" fill="#14151a" font-size="7.5" font-weight="600" text-anchor="middle">MinIO (S3-compatible)</text>

  <rect x="188" y="338" width="148" height="24" rx="4" fill="#ffffff" stroke="#e2e4e9" stroke-width="0.8"/>
  <text x="262" y="354" fill="#14151a" font-size="7.5" font-weight="600" text-anchor="middle">Redis 7 (Cache)</text>

  <rect x="28" y="370" width="308" height="24" rx="4" fill="#eef0f3" stroke="#cdd0d7" stroke-width="0.8"/>
  <text x="182" y="386" fill="#14151a" font-size="7.5" font-weight="600" text-anchor="middle">Docker Compose Production: api + migrate + worker</text>

  <!-- HF Spaces -->
  <rect x="396" y="266" width="348" height="136" rx="10" fill="#f6f7f9" stroke="#e2e4e9" stroke-width="1.5"/>
  <rect x="396" y="266" width="5" height="136" rx="2.5" fill="#2f6fe0"/>
  <text x="570" y="288" fill="#14151a" font-size="11" font-weight="700" text-anchor="middle">Hugging Face Spaces (Optional)</text>
  <line x1="430" y1="298" x2="710" y2="298" stroke="#e2e4e9" stroke-width="0.8"/>

  <rect x="408" y="306" width="148" height="24" rx="4" fill="#ffffff" stroke="#e2e4e9" stroke-width="0.8"/>
  <text x="482" y="322" fill="#14151a" font-size="7.5" font-weight="600" text-anchor="middle">Cross-Encoder Reranker</text>

  <rect x="568" y="306" width="148" height="24" rx="4" fill="#ffffff" stroke="#e2e4e9" stroke-width="0.8"/>
  <text x="642" y="322" fill="#14151a" font-size="7.5" font-weight="600" text-anchor="middle">MiniLM-L-6-v2</text>

  <text x="570" y="360" fill="#53565f" font-size="7.5" text-anchor="middle">Docker port 7860 · GPU/CPU auto-scale</text>
  <text x="570" y="376" fill="#53565f" font-size="7.5" text-anchor="middle">Standalone service, not bundled with API</text>

  <!-- Arrow from Render to HF -->
  <path d="M750 169 L760 169" stroke="#8b8e97" stroke-width="1" stroke-dasharray="3 3"/>
  <text x="754" y="162" fill="#8b8e97" font-size="6.5" font-style="italic">S3</text>
</svg>
